<!DOCTYPE svg PUBLIC "-//W3C//DTD SVG 1.1//EN" "http://www.w3.org/Graphics/SVG/1.1/DTD/svg11.dtd">
<!-- Uploaded to: SVG Repo, www.svgrepo.com, Transformed by: SVG Repo Mixer Tools -->
<svg version="1.1" id="Layer_1" xmlns="http://www.w3.org/2000/svg" xmlns:xlink="http://www.w3.org/1999/xlink" viewBox="0 0 512 512" xml:space="preserve" width="800px" height="800px" fill="#000000">
<g id="SVGRepo_bgCarrier" stroke-width="0"/>
<g id="SVGRepo_tracerCarrier" stroke-linecap="round" stroke-linejoin="round"/>
<g id="SVGRepo_iconCarrier"> <g> <path style="fill:#BBBBBD;" d="M256.006,422.639c-3.698,0-6.694-2.997-6.694-6.694V122.031c0-3.698,2.997-6.694,6.694-6.694 c3.698,0,6.694,2.997,6.694,6.694v293.914C262.699,419.642,259.702,422.639,256.006,422.639z"/> <path style="fill:#BBBBBD;" d="M220.6,422.641c-2.289,0-4.52-1.176-5.769-3.29L74.166,181.322c-1.88-3.183-0.825-7.288,2.358-9.168 c3.183-1.882,7.288-0.826,9.168,2.358L226.357,412.54c1.88,3.183,0.825,7.288-2.358,9.168 C222.931,422.341,221.758,422.641,220.6,422.641z"/> <path style="fill:#BBBBBD;" d="M291.424,422.641c-1.157,0-2.331-0.301-3.399-0.932c-3.183-1.88-4.238-5.986-2.359-9.168 l140.643-238.029c1.88-3.184,5.986-4.237,9.168-2.359c3.183,1.88,4.238,5.986,2.359,9.168L297.193,419.351 C295.944,421.466,293.712,422.641,291.424,422.641z"/> </g> <rect x="195.528" y="406.83" style="fill:#8CC1EA;" width="120.98" height="105.17"/> <path style="fill:#bbc7a4;" d="M108.876,175.531c-17.794,0-35.588,6.877-49.037,20.642h-0.012C59.827,87.826,147.653,0,256,0 s196.161,87.814,196.173,196.161c-26.91-27.519-71.176-27.519-98.074,0.012c-13.449-13.765-31.255-20.642-49.049-20.642 c-17.794,0-35.588,6.877-49.037,20.642c-13.461-13.765-31.255-20.642-49.049-20.642s-35.588,6.877-49.037,20.642 C144.477,182.408,126.67,175.531,108.876,175.531z"/> <path style="fill:#a3b08d;" d="M254.284,0.012C185.444,1.29,129.117,78.43,122.556,176.906c-4.503-0.925-9.092-1.375-13.668-1.375 c-17.794,0-35.588,6.877-49.037,20.642h-0.012C59.839,88.398,146.728,0.937,254.284,0.012z"/> <polygon style="fill:#79B1D6;" points="316.502,414.899 265.286,459.409 316.502,503.931 316.502,512 307.228,512 256.012,467.478 204.784,512 195.522,512 195.522,503.918 246.738,459.409 195.522,414.899 195.522,406.83 204.784,406.83 256.012,451.352 307.228,406.83 316.502,406.83 "/> </g>
</svg>